<svg width="25" height="25" viewBox="0 0 21 25" fill="none" xmlns="http://www.w3.org/2000/svg">
<path d="M0.942405 23.7458H3.74935V1.8875H1.00213V0.633334H11.3341C14.6387 0.633334 17.0475 1.31018 18.5605 2.66389C20.0734 4.01759 20.8299 5.94861 20.8299 8.45694C20.8299 10.9255 20.0336 12.956 18.441 14.5486C16.8484 16.1014 14.4993 16.8778 11.3938 16.8778H7.98963V23.7458H12.0507V25H0.942405V23.7458ZM10.9757 15.7431C13.5239 15.7431 15.1961 14.3495 15.9924 11.5625C16.2711 10.6069 16.4105 9.59167 16.4105 8.51667C16.4105 4.09722 14.6188 1.8875 11.0355 1.8875H7.98963V15.7431H10.9757Z" fill="#E74B4B"/>
</svg>
